<svg width="32" height="32" viewBox="0 0 32 32" fill="none" xmlns="http://www.w3.org/2000/svg">
<path d="M2.66931 16.0027C2.67086 22.5619 7.44051 28.1467 13.9186 29.1747V19.856H10.536V16.0027H13.9226V13.0693C13.7712 11.6794 14.246 10.2941 15.2182 9.28925C16.1903 8.28437 17.5591 7.76402 18.9533 7.86934C19.954 7.8855 20.9522 7.97463 21.94 8.13601V11.4147H20.2546C19.6744 11.3387 19.0911 11.5303 18.669 11.9356C18.2469 12.3408 18.0317 12.9159 18.084 13.4987V16.0027H21.7786L21.188 19.8573H18.084V29.1747C25.09 28.0675 30.0028 21.669 29.2633 14.6148C28.5239 7.5605 22.391 2.31991 15.3077 2.68958C8.22446 3.05924 2.67044 8.90975 2.66931 16.0027Z" fill="#E6DFC7"/>
</svg>
