<svg width="64" height="64" viewBox="0 0 64 64" fill="none" xmlns="http://www.w3.org/2000/svg">
<path d="M2 32C2 15.4315 15.4315 2 32 2H62V32C62 48.5685 48.5685 62 32 62H2V32Z" stroke="#E6DFC7" stroke-width="4"/>
<path d="M28.0273 34.2852V30.9219C28.0273 30.4609 27.9375 30.0273 27.7578 29.6211C27.5859 29.207 27.3477 28.8477 27.043 28.543C26.7383 28.2383 26.3789 28 25.9648 27.8281C25.5586 27.6484 25.125 27.5586 24.6641 27.5586C24.2031 27.5586 23.7656 27.6484 23.3516 27.8281C22.9453 28 22.5898 28.2383 22.2852 28.543C21.9805 28.8477 21.7383 29.207 21.5586 29.6211C21.3867 30.0273 21.3008 30.4609 21.3008 30.9219V34.2852H28.0273ZM31.3906 41H28.0273V37.6367H21.3008V41H17.9492V30.9219C17.9492 29.9922 18.125 29.1211 18.4766 28.3086C18.8281 27.4883 19.3047 26.7734 19.9062 26.1641C20.5156 25.5547 21.2266 25.0742 22.0391 24.7227C22.8594 24.3711 23.7344 24.1953 24.6641 24.1953C25.5938 24.1953 26.4648 24.3711 27.2773 24.7227C28.0977 25.0742 28.8125 25.5547 29.4219 26.1641C30.0312 26.7734 30.5117 27.4883 30.8633 28.3086C31.2148 29.1211 31.3906 29.9922 31.3906 30.9219V41ZM33.3242 29.2344C33.3242 28.5391 33.457 27.8867 33.7227 27.2773C33.9883 26.668 34.3477 26.1367 34.8008 25.6836C35.2617 25.2227 35.7969 24.8594 36.4062 24.5938C37.0156 24.3281 37.668 24.1953 38.3633 24.1953H46.0742V27.5586H38.3633C38.1289 27.5586 37.9102 27.6016 37.707 27.6875C37.5039 27.7734 37.3242 27.8945 37.168 28.0508C37.0195 28.1992 36.9023 28.375 36.8164 28.5781C36.7305 28.7812 36.6875 29 36.6875 29.2344C36.6875 29.4688 36.7305 29.6914 36.8164 29.9023C36.9023 30.1055 37.0195 30.2852 37.168 30.4414C37.3242 30.5898 37.5039 30.707 37.707 30.793C37.9102 30.8789 38.1289 30.9219 38.3633 30.9219H41.7266C42.4219 30.9219 43.0742 31.0547 43.6836 31.3203C44.3008 31.5781 44.8359 31.9375 45.2891 32.3984C45.75 32.8516 46.1094 33.3867 46.3672 34.0039C46.6328 34.6133 46.7656 35.2656 46.7656 35.9609C46.7656 36.6562 46.6328 37.3086 46.3672 37.918C46.1094 38.5273 45.75 39.0625 45.2891 39.5234C44.8359 39.9766 44.3008 40.3359 43.6836 40.6016C43.0742 40.8672 42.4219 41 41.7266 41H34.2617V37.6367H41.7266C41.9609 37.6367 42.1797 37.5938 42.3828 37.5078C42.5859 37.4219 42.7617 37.3047 42.9102 37.1562C43.0664 37 43.1875 36.8203 43.2734 36.6172C43.3594 36.4141 43.4023 36.1953 43.4023 35.9609C43.4023 35.7266 43.3594 35.5078 43.2734 35.3047C43.1875 35.1016 43.0664 34.9258 42.9102 34.7773C42.7617 34.6211 42.5859 34.5 42.3828 34.4141C42.1797 34.3281 41.9609 34.2852 41.7266 34.2852H38.3633C37.668 34.2852 37.0156 34.1523 36.4062 33.8867C35.7969 33.6211 35.2617 33.2617 34.8008 32.8086C34.3477 32.3477 33.9883 31.8125 33.7227 31.2031C33.457 30.5859 33.3242 29.9297 33.3242 29.2344Z" fill="#E6DFC7"/>
</svg>
